<svg width="112" height="14" viewBox="0 0 112 14" fill="none" xmlns="http://www.w3.org/2000/svg">
<path d="M8.49298 0.454407V5.8208H2.89456V0.454407H0V13.9657H2.89456V8.31032H8.49298V13.9657H11.3875V0.454407H8.49298Z" fill="white"/>
<path d="M29.8618 11.4554V0.454407H26.9642V11.4956C26.9642 13.0987 27.8357 13.9672 29.4357 13.9672H36.0188V11.4554H29.8618Z" fill="white"/>
<path d="M13.2035 7.06781C13.2035 2.52082 16.1412 0.169861 19.4916 0.169861C22.6454 0.169861 24.956 2.09622 25.2971 5.00587H22.4845C22.3058 3.59947 21.0693 2.65491 19.4916 2.65491C17.4671 2.65491 15.9088 4.17752 15.9088 7.06632C15.9088 9.95511 17.4671 11.4584 19.4916 11.4584C21.1035 11.4584 22.34 10.5138 22.556 9.12676H25.2435C25.0111 12.017 22.699 13.9628 19.4916 13.9628C16.0876 13.9628 13.2035 11.6118 13.2035 7.06483V7.06781Z" fill="white"/>
<path d="M37.0481 9.18334H40.3285C40.406 10.3216 41.1777 11.0561 42.3352 11.0561C43.3587 11.0561 44.0141 10.5734 44.0141 9.821C44.0141 7.54303 37.3938 9.60795 37.3938 4.10747C37.3938 1.81014 39.3632 0.16983 42.1222 0.16983C45.1329 0.16983 47.1217 1.88761 47.159 4.53207H43.9158C43.8384 3.6635 43.1829 3.10332 42.1207 3.10332C41.2715 3.10332 40.7114 3.50856 40.7114 4.10747C40.7114 6.63572 47.448 4.30115 47.448 9.76289C47.448 12.3299 45.4413 13.9896 42.3337 13.9896C39.2261 13.9896 37.142 12.0975 37.0452 9.18334H37.0481Z" fill="white"/>
<path d="M75.2942 13.9687H78.0159L79.5593 8.62169L81.0654 13.9687H83.7872L87.0303 4.24008H83.8453L82.4166 9.50963L80.9686 4.24008H78.1128L76.6841 9.50963L75.2361 4.24008H69.7911V0.00148959H66.606V4.24008H62.9726V2.6087H65.6362V0H62.1428C60.7529 0 59.7875 0.949026 59.7875 2.33904V4.24008H57.5857V6.01298C56.671 4.74215 55.1485 3.96148 53.3027 3.96148C50.2726 3.96148 48.0916 6.10386 48.0916 8.98074C48.0916 11.8576 50.2726 14 53.3027 14C56.3328 14 58.5138 11.8576 58.5138 8.98074C58.5138 8.22092 58.3618 7.51176 58.0818 6.88007L59.7875 6.88305V13.9687H62.9726V6.86517H66.606V11.6133C66.606 13.1195 67.4552 13.9687 68.9613 13.9687H72.2432V11.3436H69.7926V6.86517H72.1911V4.60956L75.2957 13.9672L75.2942 13.9687ZM53.3042 11.2959C52.0886 11.2959 51.2782 10.3693 51.2782 8.97925C51.2782 7.58923 52.0886 6.66255 53.3042 6.66255C54.5198 6.66255 55.3302 7.58923 55.3302 8.97925C55.3302 10.3693 54.5198 11.2959 53.3042 11.2959Z" fill="white"/>
<path d="M86.8664 11.0859C86.8664 9.17443 88.2563 8.01683 90.3017 8.01683H91.6917C92.1937 8.01683 92.4633 7.6697 92.4633 7.20636C92.4633 6.62681 91.9807 6.22158 91.1121 6.22158C90.05 6.22158 89.6641 6.87859 89.6448 7.57286H86.8649C86.9424 5.60329 88.4276 3.96298 91.3043 3.96298C93.7356 3.96298 95.6275 5.39174 95.6275 7.59223V13.9643H92.4618V12.6487C92.2116 13.4592 91.2269 14 89.9725 14C88.158 14 86.8649 12.7068 86.8649 11.0859H86.8664ZM90.8619 11.7802C91.8853 11.7802 92.4633 10.931 92.4633 10.0236V9.94617H90.8425C90.2824 9.94617 89.8772 10.3514 89.8772 10.931C89.8772 11.433 90.3017 11.7802 90.8619 11.7802Z" fill="white"/>
<path d="M102.598 6.88008C102.328 7.56093 102.203 8.29095 102.203 8.97926C102.203 11.2766 103.785 13.9985 107.279 13.9985C109.673 13.9985 111.583 12.6279 111.988 10.4661H108.919C108.745 11.1231 108.147 11.4315 107.279 11.4315C106.121 11.4315 105.445 10.8132 105.253 9.73312H111.95C111.97 9.50219 111.989 9.23104 111.989 8.78707C111.989 6.74152 110.774 3.96149 107.087 3.96149C105.281 3.96149 104.037 4.68853 103.256 5.70758V4.24009H98.9719C97.582 4.24009 96.6167 5.2055 96.6167 6.59552V13.9687H99.8017V6.87859H102.596L102.598 6.88008ZM107.085 6.22008C108.184 6.22008 108.783 7.01118 108.841 7.84102H105.251C105.464 6.66405 106.062 6.22008 107.085 6.22008Z" fill="white"/>
</svg>
